/* XPM */
static char *collectible[] = {
/* columns rows colors chars-per-pixel */
"64 64 92 1 ",
"  c black",
". c #090404",
"X c #120708",
"o c #16080A",
"O c #180809",
"+ c #220C10",
"@ c #2D0F13",
"# c #2A0F1B",
"$ c #371218",
"% c #3C131B",
"& c #371423",
"* c #391624",
"= c #3A1A26",
"- c #3E1629",
"; c #44141D",
": c #431727",
"> c #4A1720",
", c #4D1823",
"< c #4C1728",
"1 c #421C2D",
"2 c #4D1A2F",
"3 c #541A26",
"4 c #5B1C2A",
"5 c #4D1B31",
"6 c #531C34",
"7 c #5B1D34",
"8 c #571D39",
"9 c #5B1E3B",
"0 c #641E2B",
"q c #6A1F2E",
"w c #621F35",
"e c #631F3B",
"r c #4B2A37",
"t c #5D2033",
"y c #61202E",
"u c #6D212E",
"i c #612033",
"p c #6B2134",
"a c #6B213B",
"s c #752235",
"d c #7C2436",
"f c #74233B",
"g c #7B253A",
"h c #652041",
"j c #6E2143",
"k c #605D5E",
"l c #7A5D62",
"z c #6C686A",
"x c #74656B",
"c c #78646C",
"v c #75696D",
"b c #7D6E70",
"n c #832536",
"m c #892637",
"M c #84263A",
"N c #892739",
"B c #852838",
"V c #8E283B",
"C c #94293C",
"Z c #9B2B3E",
"A c #A32C3F",
"S c #842541",
"D c #8D2741",
"F c #8D2840",
"G c #942940",
"H c #9C2B40",
"J c #A22B40",
"K c #855E61",
"L c #87777C",
"P c #8D7C7E",
"I c #A3606A",
"U c #948C8F",
"Y c #A48C8F",
"T c #A39B9E",
"R c #AEABAB",
"E c #B3ACAD",
"W c #B9B3B5",
"Q c #BBB7B9",
"! c #C3BEC0",
"~ c #C4C3C3",
"^ c #D6D3D4",
"/ c #DDD6D7",
"( c #D8D7D8",
") c #DCDCDC",
"_ c #E1DFE0",
"` c #E4E3E3",
"' c #E8E6E7",
"] c #EEEEEE",
"[ c #F0EFEF",
"{ c #F4F3F4",
"} c #FEFEFE",
"| c None",
/* pixels */
"||||||||||||||||||||||||||||||||||||||||||||||||||||||||||||||||",
"||||||||||||||||||||||||||||||||||||||||||||||||||||||||||||||||",
"||||||||||||||||||||||||||||||||||||||||||||||||||||||||||||||||",
"||||||||||||||||||||||||||||||||||||||||||||||||||||||||||||||||",
"||||||||||||||||||||||||||||||||||||||||||||||||||||||||||||||||",
"||||||||||||||||||||||||||||||||||||||||||||||||||||||||||||||||",
"||||||||||||||||||||||||||||||||||||||||||||||||||||||||||||||||",
"||||||||||||||||||||||||||||||||||||||||||||||||||||||||||||||||",
"||||||||||||||||||||||||||||||||||||||||||||||||||||||||||||||||",
"||||||||||||||||||||||||||||||||||||||||||||||||||||||||||||||||",
"||||||||||||||||||||||||||||||||||||||||||||||||||||||||||||||||",
"||||||||||||||||||||||||||||||||||||||||||||||||||||||||||||||||",
"||||||||||||||||||||||||||||||||||||||||||||||||||||||||||||||||",
"||||||||||||||||||||||||||||||||||||||||||||||||||||||||||||||||",
"||||||||||||||||||||||||||||||||||||||||||||||||||||||||||||||||",
"||||||||||||||||||||||||||||||||||||||||||||||||||||||||||||||||",
"||||||||||||||||||||||||||||||||||||||||||||||||||||||||||||||||",
"|||||||||||||||||||||||||||||||||||||||||||}}}}{}|||||||||||||||",
"|||||||||||||||||||||||||||||||||||||||||}}{'EPQ}}||||||||||||||",
"|||||||||||||||||||||||||||||||||||||||}}{Eyp3,)}|||||||||||||||",
"||||||||||||||||||||||||||||||||||||||}}~%,34;;}}|||||||||||||||",
"||||||||||||||||||||||||||||||||||||}}[k+$%;%;;}}|||||||||||||||",
"||||||||||||||||||||||||||||||||||}}}^K.O@$;;:|}||||||||||||||||",
"||||||||||||||||||||||||||||||||}}}{0CCOX@%<at}|||||||||||||||||",
"|||||||||||||||||||||||||||||||}}/EdnCAC0sVGj^}|||||||||||||||||",
"||||||||||||||||||||||||||||||}[NgpZACAmCJDjv}}|||||||||||||||||",
"|||||||||||||||||||||||||||||}}lusAZDDussah5}}||||||||||||||||||",
"||||||||||||||||||||||||||||}}(B<wJAHVswhtQ}}|||||||||||||||||||",
"|||||||||||||||||||||||||||}}EuCgZNMqHGi'}}}||||||||||||||||||||",
"||||||||||||||||||||||||||}}bZJJmsHBuGj'}}}|||||||||||||||||||||",
"||||||||||||||||||||||||||}|3gMsMZVsp6'}}|||||||||||||||||||||||",
"|||||||||||||||||||||||||}{,sANmCAHNf]}}||||||||||||||||||||||||",
"||||||||||||||||||||||||}{dnNdNAHVMi]}||||||||||||||||||||||||||",
"||||||||||||||||||||||}}}CNsMHds0si{}|||||||||||||||||||||||||||",
"|||||||||||||||||||||}}]YdCAMnHAMa'}||||||||||||||||||||||||||||",
"||||||||||||||||||||}[IJAZnfHJJC85{}||||||||||||||||||||||||||||",
"|||||||||||||||||||}}snmsnCmdACp7*{}||||||||||||||||||||||||||||",
"|||||||||||||||||}}{UVsMnnnAZMMs6T}}||||||||||||||||||||||||||||",
"|||||||||||||||||}{U7N7MVMsgfdgfl[}}||||||||||||||||||||||||||||",
"||||||||||||||||}}*8eq-7gMMgMafS[}}|||||||||||||||||||||||||||||",
"|||||||||||||||}}`t9f6eMqp6sdVt{{}||||||||||||||||||||||||||||||",
"|||||||||||||||}rLhtwtH345afp*}}||||||||||||||||||||||||||||||||",
"|||||||||||||||}})12pHJM8t-6c}}|||||||||||||||||||||||||||||||||",
"||||||||||||||}}{5hjfsae95z(}}||||||||||||||||||||||||||||||||||",
"||||||||||||||}|v-{(#8869!}}}|||||||||||||||||||||||||||||||||||",
"||||||||||||||}}{}}`652W_}}|||||||||||||||||||||||||||||||||||||",
"||||||||||||||||}}}{{}{}}}||||||||||||||||||||||||||||||||||||||",
"||||||||||||||||||}}}}}}||||||||||||||||||||||||||||||||||||||||",
"||||||||||||||||||||||||||||||||||||||||||||||||||||||||||||||||",
"||||||||||||||||||||||||||||||||||||||||||||||||||||||||||||||||",
"||||||||||||||||||||||||||||||||||||||||||||||||||||||||||||||||",
"||||||||||||||||||||||||       |     | |||||||||||||||||||||||||",
"|||||||||||||||||||                      |||||||||||||||||||||||",
"|||||||||||||||||                           ||||||||||||||||||||",
"||||||||||||||||                           | |||||||||||||||||||",
"|||||||||||||||                             ||||||||||||||||||||",
"|||||||||||||||                             ||||||||||||||||||||",
"||||||||||||||||                            ||||||||||||||||||||",
"||||||||||||||||                          ||||||||||||||||||||||",
"||||||||||||||||||                      | ||||||||||||||||||||||",
"||||||||||||||||||||||||||||||||||||||||||||||||||||||||||||||||",
"||||||||||||||||||||||||||||||||||||||||||||||||||||||||||||||||",
"||||||||||||||||||||||||||||||||||||||||||||||||||||||||||||||||",
"||||||||||||||||||||||||||||||||||||||||||||||||||||||||||||||||"
};
