/* XPM */
static char *open[] = {
/* columns rows colors chars-per-pixel */
"51 64 185 2 ",
"   c #0E120C",
".  c #13110F",
"X  c #151210",
"o  c #191614",
"O  c #161914",
"+  c #1B1916",
"@  c #1B1B1A",
"#  c #171A1C",
"$  c #211E1C",
"%  c #1D211C",
"&  c #23211E",
"*  c #1B1D20",
"=  c #1D252D",
"-  c #1E2226",
";  c #1F2A34",
":  c #242423",
">  c #2B2522",
",  c #252A24",
"<  c #2A2A26",
"1  c #2C2D2B",
"2  c #20262B",
"3  c #312A26",
"4  c #342D2A",
"5  c #2E342D",
"6  c #34322C",
"7  c #39322E",
"8  c #212F3A",
"9  c #202C35",
"0  c #22313E",
"q  c #323331",
"w  c #3C3531",
"e  c #3E3B35",
"r  c #383D37",
"t  c #413936",
"y  c #403734",
"u  c #3C443A",
"i  c #243443",
"p  c #263949",
"a  c #283C4D",
"s  c #283E51",
"d  c #263C50",
"f  c #294157",
"g  c #2A445B",
"h  c #2D4A63",
"j  c #2F4E69",
"k  c #314F6A",
"l  c #2F506B",
"z  c #30516D",
"x  c #3B596C",
"c  c #325573",
"v  c #345877",
"b  c #3A5C74",
"n  c #345B7B",
"m  c #3A5E7C",
"M  c #3B627D",
"N  c #444444",
"B  c #464845",
"V  c #4C4C4C",
"C  c #484947",
"Z  c #415B5B",
"A  c #495E59",
"S  c #585858",
"D  c #536A5D",
"F  c #576C57",
"G  c #536A56",
"H  c #445C68",
"J  c #456362",
"K  c #4B6468",
"L  c #556D6D",
"P  c #5A6F6E",
"I  c #476271",
"U  c #4E6870",
"Y  c #4C6473",
"T  c #506B74",
"R  c #516A7C",
"E  c #537372",
"W  c #647B66",
"Q  c #627778",
"!  c #6E8359",
"~  c #5D8378",
"^  c #6B876B",
"/  c #768964",
"(  c #63877C",
")  c #7F8F7C",
"_  c #779670",
"`  c #B2BB2F",
"'  c #B5BD30",
"]  c #A8B634",
"[  c #BEC726",
"{  c #BBC33B",
"}  c #CDD31F",
"|  c #D7DC1B",
" . c #DDE413",
".. c #DDE01C",
"X. c #F4F707",
"o. c #FDFF00",
"O. c #F7F90B",
"+. c #FBFD0C",
"@. c #F7FA06",
"#. c #EAEE14",
"$. c #E5E918",
"%. c #E6E919",
"&. c #FAFD12",
"*. c #F4F710",
"=. c #EAEE14",
"-. c #C3CC20",
";. c #C4CB27",
":. c #CED62E",
">. c #DADF2A",
",. c #D5DB29",
"<. c #C0C731",
"1. c #D6DD38",
"2. c #DEE325",
"3. c #E6ED25",
"4. c #F0F42A",
"5. c #8D9E55",
"6. c #88964C",
"7. c #9FAC52",
"8. c #9EAA4B",
"9. c #A0AD47",
"0. c #ACBA45",
"q. c #8B9B63",
"w. c #849472",
"e. c #93A36B",
"r. c #BFC860",
"t. c #ACC472",
"y. c #CBD749",
"u. c #C2CA4D",
"i. c #DBE043",
"p. c #D7E356",
"a. c #C2CA71",
"s. c #355F81",
"d. c #366185",
"f. c #3B6583",
"g. c #37658A",
"h. c #38668B",
"j. c #37688E",
"k. c #3A688D",
"l. c #3A6C93",
"z. c #3B6F98",
"x. c #3D7097",
"c. c #3C729C",
"v. c #3C76A2",
"b. c #3E79A6",
"n. c #3E7AA8",
"m. c #446A85",
"M. c #4D7A84",
"N. c #4F7C88",
"B. c #497684",
"V. c #507D87",
"C. c #537B84",
"Z. c #416F92",
"A. c #427295",
"S. c #42759C",
"D. c #437BA6",
"F. c #427EAB",
"G. c #487EA4",
"H. c #598284",
"J. c #5F8C92",
"K. c #6B9292",
"L. c #7EA387",
"P. c #4481AE",
"I. c #4982AC",
"U. c #5D93A1",
"Y. c #4684B2",
"T. c #4A87B3",
"R. c #4C8AB6",
"E. c #4E8DBB",
"W. c #518CB7",
"Q. c #508EBA",
"!. c #4F90BD",
"~. c #5191BE",
"^. c #6396A1",
"/. c #7CABA6",
"(. c #6EA7B6",
"). c #5495C3",
"_. c #5799C7",
"`. c #5A9DCA",
"'. c #599AC6",
"]. c #5EA0CC",
"[. c #61A3CE",
"{. c #91A883",
"}. c #87B4A6",
"|. c #A8CC87",
" X c None",
/* pixels */
" X X X X X X X X X X X X X X X X X X X X X Xo.+.o.o.+.+.o.o. X X X X X X X X X X X X X X X X X X X X X",
" X X X X X X X X X X X X X X X X X Xo.o.$.=.>.W D K J q.2.2.#.o. X X X X X X X X X X X X X X X X X X X",
" X X X X X X X X X X X X X X X X Xo.%.' A x M b.d.l.D.x.v h G -.O.o. X X X X X X X X X X X X X X X X X",
" X X X X X X X X X X X X X X Xo.+.<.Q h.g.x.F.n.s.G.n.b.b.k.g.j.! 8.o.o. X X X X X X X X X X X X X X X",
" X X X X X X X X X X X X Xo.@.$.W I D.F.F.F.R.).x.I.~.~.T.F.F.n.x.z 8.$.o.o. X X X X X X X X X X X X X",
" X X X X X X X X X X Xo.o.>.6.x c F.F.Q.).F.A.S.h.v j.l.I.E.R.R.Y.l.c I 0.:.o. X X X X X X X X X X X X",
" X X X X X X X X X Xo.+.' x d.c.v F.F.l.k.k.s.s.n j n m d.j.j.S.I.S.A.A.n H :.o.o. X X X X X X X X X X",
" X X X X X X X X Xo.,.Q A.c.n.R.G.s.h.h.s.s.v v v h c v v n g.h.f.k.W.Y.D.Z.C./ *.o. X X X X X X X X X",
" X X X X X X X Xo.2.J g.b.P.R.c.k.v z v c v v z z h z c v v v c z d.l.T.Y.F.v.v W 3.o. X X X X X X X X",
" X X X X X X Xo.$.H j.b.Y.T.D.d.s.v z z z k z s i i i h j k c h c v s.k.I.T.F.v.c Q 4.o. X X X X X X X",
" X X X X X Xo.o.5.h.b.T.G.j.d.v z h h g s = = 2 $ $ $ = = 9 h h h k v n g.Z.T.F.c.c a.o. X X X X X X X",
" X X X X X Xo.{ m.b.T.I.j.v v z a * * $ * $ $ $ > > & $ $ $ @ $ * 2 h c n s.l.R.D.D.m.i.o. X X X X X X",
" X X X X Xo.{ x c.T.G.g.d.c g p $ > > 7 > 3 7 7 7 y 7 7 4 > 3 > 3 & 2 s z m s.l.T.F.h.Y 1.o. X X X X X",
" X X X Xo.O.D c I.D.d.n c g 2 & 3 3 4 y 4 3 > > > $ > $ 4 > y y 4 4 > $ 8 k c g.l.D.l.h q.o. X X X X X",
" X X X X@.5.x.d.c d.d.v g 2 4 > 4 y y $ o o X X X X X X o o $ > w 7 3 4 < 8 k n h.n z z.m.u.@. X X X X",
" X X Xo.<.l.F.T.f.n s.g & > 4 3 $ X X X X X X X X X X X X X X X X o $ 4 4 $ i z s.c G.F.v.m.$.o. X X X",
" X Xo.#./ l.P.T.d.l g 2 & 4 4 o X X X X X X X X X X X X X X X X X X X & 7 3 $ i j v l.).D.k.e.o. X X X",
" X Xo.-.d.c.R.x.n c i : 4 4 + X X . X X X X X X X X X X X X X X X X X X & 7 3 @ h c g.G.Y.D.T o.o. X X",
"o.&.i.7.v k.E.g.v g # > w o X X X X X X X X X X X X X X X X X X X X X X X > 7 @ ; k s.l.R.v.I y.p.+. X",
"o.|.A.c c n W.d.c g + > 3 o + . X X X X X X X X X X X X X X X X X X X X X $ < & = j v S.R.z.k s.W.3. X",
"o.{.D.I.v v W.h.n g $ 7 : q O X X X X X X X X X X X X X X X X X X X X X @ q < 4 = j s.D.R.n l.T.A. . X",
"o.q.d.D.l.c E.f.c g $ w + @ % O X X X X X X X X X X X X X X X X X X X + % < w 4 = j n c.G.k F.Z.z  . X",
"o.w.d.n s.l A.v z f $ 4 + @ % % X X X X X X X X X X X X X X X X . O + , C , w 3 = k z g.g.n s.g.c  . X",
"o.a.b v n d.d.d.d.g $ w + O @ % X X X X X X X X X X X X X X X X . . @ & C < e 3 = h k v s.s.s.s.K.=. X",
"o.&.P h.k.d.d.n n g @ 6 + X # % X X X X X X X X X X X X X X X X X X X O C < q 4 = j c v n j.k.s.] o. X",
" X+.) R h h h h h g @ > + q q   X X X X X X X X X X X X X . X X X X X N V , 6 & = h h h h j k Q { o. X",
" Xo.@.;.k c c k k g + 3 + 1 N & X X X X X X X X X X X X X X X X X o : V V & 6 & = j h c c n L +.o. X X",
" X Xo.-.c d.v z k f $ 3 + V N 1 $ X X X X X X X X X X X X X X X X o > V V & 6 > = j h v d.j.K o. X X X",
" X Xo.-.n k.g.m l g @ > o S N : : X X X X X X X X X X X . X X X X + < q C % 5 & = z j g.k.I.T o. X X X",
" X X X$.f.x.S.S.n g & t $ S N : $ X X X X X X X X X X X X X X . X + : q C , e w = v j j.x.Q.T o. X X X",
" X X X| f.b.S.S.c g @ 7 $ S N > & X X X X X X X X X X X X X X X X o , q C , e > = c j l.c.E.T o. X X X",
" X Xo.| f.n.F.S.j g $ w $ V q : & X X X X X X X X X X X X X X X X : < C V , w 4 = l j v.v.n.U o. X X X",
" X X X-.c v.b.g.k g $ 7 @ V 1 < $ X X X X X X X X X X X X X X X X 2 < N S B q < = j j v.v.v.P o. X X X",
" X X X| v v.z.g.z s @ 3 @ V 1 : $ X X X X X . X X X X X X X X X . @ < 4 N N 4 > = l j v.c.v.P o. X X X",
" X X X| v S.l.s.k g $ 7 $ V 1 < > . X X X X X X X X X X X X X X X X : < q C w 4 = j j v.c.v.E o. X X X",
" X X X>.v b.D.v c s $ 4 $ V @ @ o . X X X X X X X X X X X X X X X X . . 5 C w < = j h l.b.v.W o. X X X",
" X Xo.| v D.E.s.s.h @ 3 o V $   . X X X X X X X X X X X X X X X X X * o < q 6 < = v l l.n.c.W o. X X X",
" X X X-.c v.Q.v n g $ y @ < : O . X X X X X X X X X X X X X X X X + q r 5 5 t q = n j l.n.D.T o. X X X",
" X X X-.v D.E.v n h $ w $ N 1 $ X X X X X X X X X X X X X X X X X + 1 V V 5 e 4 = v l l.n.v.U o. X X X",
" X X X,.v c.z.v z s $ 4 + S N : X X X X X X X X X X X X X X X X . o < V u 5 w 3 = l h g.c.v.U o. X X X",
" X Xo.-.m c.n c z g $ w $ N N o X X X X X X X X X X X X X X X X X X & 1 & 5 u 4 = j h n j.v.U o. X X X",
" X Xo.-.n l.v z v g @ e @ 6 N @ X X X X X X X X X X X X X X X X X X * O & 5 e 4 = c j n d.j.Y 4.o. X X",
" X X@.F c c c j h g $ 4 + q u : X X X X X X X X X . X X X X X X X X & : , 5 7 3 = h g z c n h / #.o. X",
" X XX.z n s.n c n n @ 4 + 1 , & X X X X X X X X X X X X X X X X X X & C 5 5 6 3 8 j.d.m n n n c ' o. X",
" Xo.O.m ).E.).R.Q.I.@ 3 + , @ * X X X X X X X X X . X X X X X X X X @ , : , 6 & f !.!.~.~.~.).x.<. X X",
"o.%.4.z j.c.x.j.h.d.+ > + < @ & o X X X X X X X X X X X X X X X X X : @ , 5 6 & 9 v g.j.k.k.j.l ] o. X",
"o.u.(.c n c n v v z @ > + & @ & o X X X X X X X X X X X X X . X X X @ < , < 5 & ; v v n v v v n 0.o.o.",
"&.y.(.E.E.R.E.E.E.I.$ w @ % * @ X X X X X X X X X X X X . X X X X X . @ % 1 e 6 a !.E.E.!.!.E.).}.t.o.",
"o.L.d.A.c.F.F.F.F.c.$ w $ @ : @ X X X X X X X X X X X X X X X X X   O % % , e 4 i A.F.F.F.F.v.z.l.K.o.",
"&.^.c j.l.v.v.k.j.n $ y o $ : % X X X X X X X X X X X X X X X X X . . & u , t 4 ; g.l.z.l.k.j.n g./.o.",
"&.U.l j.j.k.j.s.n k @ 4 + 5 % % X X X X X X X X X X X X X X X X X X   % u 5 7 3 ; c s.s.j.g.j.v j.}.o.",
"&.^.c z z z j j j g @ > + 5 % % X X X X X X X X X X X X X X X X X X   % , u 4 & = j h j c z z j j.}.o.",
"+.(.Y.n.n.D.n.D.G.l.+ 3 + 5 % O X X X X X X X X X X X X X X X X X X + O + q 1 & p D.D.D.n.D.D.D.E.}.o.",
"o.U.E.E.E.E.E.E.R.D.+ & + % . . X X X X X X X X X X X X X X X X X X . . O : , & p T.E.E.E.E.R.T.R.J.o.",
"o.E b.n.n.n.b.z.l.n @ & O + . . X X X X X X X X X X X X X X X X O . X X X o $ $ 8 j.z.z.n.b.v.l.l.H o.",
"o.^ l.v.v.v.l.j.s.n # # @ - # # # o # o # o # + # o # # o # o # O @ @ @ # # * * 8 s.g.j.c.z.v.c.k.Z o.",
"o.W j.g.g.g.g.n v z a h h j h h h g h h h h h g g h h h g h h h h g h h h h g g a c v d.d.g.g.g.g.Z o.",
"o.J v h k h j k l h h n z.l.d.n v j c s.g.g.s.d.s.s.s.s.s.s.s.s.c h n s.s.s.n c h j j j h j j l c Z o.",
"o.J c v s.d.d.s.d.d.d.z.b.b.v.v.z.c d.c.b.n.b.v.v.v.v.b.b.b.v.z.g.v g.z.v.z.g.g.n c n d.d.s.s.d.d.F o.",
"o.W g.S.F.F.F.F.b.F.F.P.Y.P.P.b.c.d.c.F._._._._.E.Y.)._._.'.!.P.l.n l.D.P.P.F.F.A.l.l.l.l.l.l.j.j.F o.",
"o.^ c.`.`.`.`.'.E._.].`.`.`.`.E.c.g.n.R.`.`.`.`.`.`.`.`.[.[.[.].R.g.F.).`.`.[.`.].'.~.Q.R.R.T.v.l.x o.",
"o._ n.`.`.`.`.[.`.`.].`._.`.`._.v.l.n.Y.Y.Y.R.`.`.`.`.`.`.[.[.]._.z.F.Y.Y.Q.[.[.`.[.[.`._.`._.!.!.J o.",
"o._ M.N.N.N.N.N.N.N.N.N.N.N.N.N.M.M.C.( C.H.~ N.N.N.N.N.N.N.N.N.N.B.B.M.M.N.N.N.N.N.N.H.H.N.N.N.C.~ o.",
"o.o.o.o.o.o.o.o.o.o.o.o.o.o.o.o.o.o.o.o.o.o.o.o.o.o.o.o.o.o.o.o.o.o.o.o.o.o.o.o.o.o.o.o.o.o.o.o.o.o.o."
};
