/* XPM */
static char *rp[] = {
/* columns rows colors chars-per-pixel */
"64 64 196 2 ",
"   c #080808",
".  c #140A07",
"X  c #1A0B07",
"o  c #120C09",
"O  c #1D1107",
"+  c #1B120C",
"@  c #0E0D11",
"#  c #100F14",
"$  c #121017",
"%  c #1B1812",
"&  c #15131B",
"*  c #18151F",
"=  c #220D06",
"-  c #2A0A06",
";  c #340A06",
":  c #3B0B05",
">  c #330E0D",
",  c #2A1607",
"<  c #3A1604",
"1  c #3C1E05",
"2  c #371507",
"3  c #251710",
"4  c #291A10",
"5  c #231818",
"6  c #2D251A",
"7  c #392415",
"8  c #1A1722",
"9  c #1C1926",
"0  c #1E1B2A",
"q  c #211C2D",
"w  c #3E1F2A",
"e  c #241F31",
"r  c #20202F",
"t  c #34212A",
"y  c #3B2F23",
"u  c #252134",
"i  c #282237",
"p  c #27283B",
"a  c #28263B",
"s  c #4A0C04",
"d  c #400B05",
"f  c #540C04",
"g  c #451903",
"h  c #4B1903",
"j  c #461305",
"k  c #551803",
"l  c #600D03",
"z  c #680D03",
"x  c #760E02",
"c  c #780E02",
"v  c #631202",
"b  c #6C1409",
"n  c #7A1900",
"m  c #761505",
"M  c #452406",
"N  c #592905",
"B  c #492819",
"V  c #523016",
"C  c #632100",
"Z  c #742202",
"A  c #792204",
"S  c #603F04",
"D  c #4A1F25",
"F  c #493B28",
"G  c #5F2C32",
"H  c #452B2C",
"J  c #6C3A22",
"K  c #613422",
"L  c #713F26",
"P  c #773132",
"I  c #78262B",
"U  c #67421E",
"Y  c #4E422F",
"T  c #51412B",
"R  c #774A27",
"E  c #7D5023",
"W  c #7D4D31",
"Q  c #7F5033",
"!  c #615239",
"~  c #2C2C43",
"^  c #322F4A",
"/  c #32324C",
"(  c #373452",
")  c #3B3B5C",
"_  c #393756",
"`  c #3F3F61",
"'  c #5D5D5D",
"]  c #7C6646",
"[  c #44456B",
"{  c #414367",
"}  c #494B73",
"|  c #8B1200",
" . c #831901",
".. c #931000",
"X. c #9A1400",
"o. c #951903",
"O. c #A01700",
"+. c #A91B00",
"@. c #8F2901",
"#. c #972903",
"$. c #9E2803",
"%. c #A62802",
"&. c #B72502",
"*. c #BC3806",
"=. c #B43D1D",
"-. c #8D3D32",
";. c #C52B00",
":. c #CB2F00",
">. c #CB3200",
",. c #C13300",
"<. c #D13200",
"1. c #DA3700",
"2. c #DE3900",
"3. c #8C4200",
"4. c #954B08",
"5. c #984A07",
"6. c #915E0E",
"7. c #985515",
"8. c #AA4200",
"9. c #A24319",
"0. c #B74A1B",
"q. c #A65B13",
"w. c #A56B10",
"e. c #8A5626",
"r. c #995E2A",
"t. c #9E4132",
"y. c #8B5C3B",
"u. c #875433",
"i. c #8F623D",
"p. c #9A6934",
"a. c #A3642D",
"s. c #BC6D21",
"d. c #B2712F",
"f. c #A9763D",
"g. c #BA7531",
"h. c #B67A38",
"j. c #DA510A",
"k. c #C26000",
"l. c #D86E09",
"z. c #CE7D2E",
"x. c #C37934",
"c. c #C06729",
"v. c #826D4B",
"b. c #8D6742",
"n. c #916443",
"m. c #966A48",
"M. c #9F734E",
"N. c #987D54",
"B. c #89734F",
"V. c #A17652",
"C. c #A47954",
"Z. c #A87D57",
"A. c #CB920F",
"S. c #CE8136",
"D. c #DE8C39",
"F. c #D68835",
"G. c #AC825A",
"H. c #AC8257",
"J. c #B48B5E",
"K. c #B78755",
"L. c #B68043",
"P. c #B58C63",
"I. c #B88F65",
"U. c #BC9866",
"Y. c #C78A47",
"T. c #DC9345",
"R. c #C4975C",
"E. c #D59B56",
"W. c #E39A4B",
"Q. c #DDA25C",
"!. c #E7A85E",
"~. c #C49D6C",
"^. c #C6A06D",
"/. c #C8A16C",
"(. c #D6A969",
"). c #D7AD75",
"_. c #D7B278",
"`. c #DAB67C",
"'. c #DCB87A",
"]. c #C4A470",
"[. c #ECB268",
"{. c #ECB067",
"}. c #E8BA76",
"|. c #EEB56D",
" X c #F2C27D",
".X c #E1BC80",
"XX c #EDCA86",
"oX c #E8C583",
"OX c #F7CE8C",
"+X c #F3C885",
"@X c #F7D68C",
"#X c #F1CBA2",
"$X c #CCC9C5",
"%X c #EADCC7",
"&X c #FBE6C4",
"*X c None",
/* pixels */
"*X*X*X*X*X*X*X*X*X*X*X*X*X*X*X*X*X*X*X*X*X*X*X*X*X*X*XJ *XJ J *XJ *X*X*X*X*X*X*X*X*X*X*X*X*X*X*X*X*X*X*X*X*X*X*X*X*X*X*X*X*X*X*X",
"*X*X*X*X*X*X*X*X*X*X*X*X*X*X*X*X*X*X*X*X*X*X*XJ *X*XJ V.W y.m.J J *X*XJ *X*X*X*X*X*X*X*X*X*X*X*X*X*X*X*X*X*X*X*X*X*X*X*X*X*X*X*X",
"*X*X*X*X*X*X*X*X*X*X*X*X*X*X*X*X*X*X*X*X*X*X*XJ J W n.n.n.J.~.n.n.W J J *X*X*X*X*X*X*X*X*X*X*X*X*X*X*X*X*X*X*X*X*X*X*X*X*X*X*X*X",
"*X*X*X*X*X*X*X*X*X*X*X*X*X*X*X*X*X*X*X*X*X*X*XJ R n.~.W P.'.oX~.~.n.W W *X*X*X*X*X*X*X*X*X*X*X*X*X*X*X*X*X*X*X*X*X*X*X*X*X*X*X*X",
"*X*X*X*X*X*X*X*X*X*X*X*X*X*X*X*X*X*X*XJ J J J J n.^.@XP.oX@X@X@X@X~.P.C.J J *X*X*X*X*X*X*X*X*X*X*X*X*X*X*X*X*X*X*X*X*X*X*X*X*X*X",
"*X*X*X*X*X*X*X*X*X*X*X*X*X*X*X*X*X*X*X*X*XJ J C._.@X@X@X@X@X@X@XI.I.n.J J *X*X*X*X*X*X*X*X*X*X*X*X*X*X*X*X*X*X*X*X*X*X*X*X*X*X*X",
"*X*X*X*X*X*X*X*X*X*X*X*X*X*X*X*X*X*XJ J Q V.(.'.XX@X@X^.XX'._.@XP.P.G.V.V.J J *X*X*X*X*X*X*X*X*X*X*X*X*X*X*X*X*X*X*X*X*X*X*X*X*X",
"*X*X*X*X*X*X*X*X*X*X*X*X*X*X*X*X*X*X*XJ R m.).~._.OX).n.^.J.H.@XP.P.I.G.n.J J *X*X*X*X*X*X*X*X*X*X*X*X*X*X*X*X*X*X*X*X*X*X*X*X*X",
"*X*X*X*X*X*X*X*X*X*X*X*X*X*X*X*X*X*X*XJ L W C.u.Z.).K.y.M.u.y.oX~.G.G.Z.W J *X*X*X*X*X*X*X*X*X*X*X*X*X*X*X*X*X*X*X*X*X*X*X*X*X*X",
"*X*X*X*X*X*X*X*X*X*X*X*X*X*X*X*X*X*XJ J u.P.J x.a.e.D.OXy.J u.P.@Xi.n.I.I.J *X*X*X*X*X*X*X*X*X*X*X*X*X*X*X*X*X*X*X*X*X*X*X*X*X*X",
"*X*X*X*X*X*X*X*X*X*X*X*X*X*X*X*X*X*X*XJ J J J ).!.W.OXOXy.a.x.J I.P.n.J J J J J *X*X*X*X*X*X*X*X*X*X*X*X*X*X*X*X*X*X*X*X*X*X*X*X",
"*X*X*X*X*X*X*X*X*X*X*X*X*X*X*X*X*X*X*X*XB 3 J ).+X}.OXF 6 e.g.J y y 6 3 3 *X*X*X*X*X*X*X*X*X*X*X*X*X*X*X*X*X*X*X*X*X*X*X*X*X*X*X",
"*X*X*X*X*X*X*X*X*X*X*X*X*X*X*X*X*X*X*X*X7   7 ] /.`.B.  ' G.S.a.          *X*X*X*X*X*X*X*X*X*X*X*X*X*X*X*X*X*X*X*X*X*X*X*X*X*X*X",
"*X*X*X*X*X*X*X*X*X*X*X*X*X*X*X*X*X*X*X*XV     4 C.^.6 , $X#XT.S.  6 %         o = *X*X*X*X*X*X*X*X*X*X*X*X*X*X*X*X*X*X*X*X*X*X*X",
"*X*X*X*X*X*X*X*X*X*X*X*X*X*X*X*X*X*X*X*X*X*X  d.{.}.D.w.%X&X(.3.  U.v.        s x   *X*X*X*X*X*X*X*X*X*X*X*X*X*X*X*X*X*X*X*X*X*X",
"*X*X*X*X*X*X*X*X*X*X*X*X*X*X*X*X*X*X*X*X*X*X  /.OX@X+X XOXY.q.F.F.}.v.        s x     *X*X*X*X*X*X*X*X*X*X*X*X*X*X*X*X*X*X*X*X*X",
"*X*X*X*X*X*X*X*X*X*X*X*X*X*X*X*X*X*X*X*X*X*X  L.}.OXOXOXOX}.Q.D.V T 6 X z z z f d z         *X*X*X*X*X*X*X*X*X*X*X*X*X*X*X*X*X*X",
"*X*X*X*X*X*X*X*X*X*X*X*X*X*X*X*X*X*X*X*X*X*X  R f.E.{.OXOXOX[.s.1 j k m &.....v s ..o       *X*X*X*X*X*X*X*X*X*X*X*X*X*X*X*X*X*X",
"*X*X*X*X*X*X*X*X*X*X*X*X*X*X*X*X*X*X*X*X*X*X*X  M 7.W.OXOX.XU.5.5.$.;.1.>.| | n n ..o       *X*X*X*X*X*X*X*X*X*X*X*X*X*X*X*X*X*X",
"*X*X*X*X*X*X*X*X*X*X*X*X*X*X*X*X*X*X*X*X*X*X*X    F OX@XOX] 7 D.2.1.2.*.C C C m ....  0 8     *X*X*X*X*X*X*X*X*X*X*X*X*X*X*X*X*X",
"*X*X*X*X*X*X*X*X*X*X*X*X*X*X*X*X*X*X*X*X*X*X*X  Z $.% % % R c.o.X.:.1.:.........x . e ) ~       *X*X*X*X*X*X*X*X*X*X*X*X*X*X*X*X",
"*X*X*X*X*X*X*X*X*X*X*X*X*X*X*X*X*X*X*X*X*X*X*X  h @.#.#.#.*.j.;...+.;.1.;.;.;. .-   u ` ~         *X*X*X*X*X*X*X*X*X*X*X*X*X*X*X",
"*X*X*X*X*X*X*X*X*X*X*X*X*X*X*X*X*X*X*X*X*X*X*X  < Z %.;.l.j.2.2.X.+.;.2.2.2.$.h     / / 0   & &     *X*X*X*X*X*X*X*X*X*X*X*X*X*X",
"*X*X*X*X*X*X*X*X*X*X*X*X*X*X*X*X*X*X*X*X*X*X*X  2 N C O.A.l.2.2...:.2.2.<.*.1 @     ) 9   @ e u 9 @   *X*X*X*X*X*X*X*X*X*X*X*X*X",
"*X*X*X*X*X*X*X*X*X*X*X*X*X*X*X*X*X*X*X*X*X*X*X*X  = C 2.2.2.2.2...:.2.:...  q i q             u ` ^   *X*X*X*X*X*X*X*X*X*X*X*X*X",
"*X*X*X*X*X*X*X*X*X*X*X*X*X*X*X*X*X*X*X*X*X*X*X*X*X*X. X.X.8.k.2...X.X.c . e e ( _             { r       *X*X*X*X*X*X*X*X*X*X*X*X",
"*X*X*X*X*X*X*X*X*X*X*X*X*X*X*X*X*X*X*X*X*X*X*X*X*X*X*X: : M M k : : : > q e _ _ ~   *X*X*X*X  0 # # 8   *X*X*X*X*X*X*X*X*X*X*X*X",
"*X*X*X*X*X*X*X*X*X*X*X*X*X*X*X*X*X*X*X*X*X*X*X*X*X*X*X  $ $   & & q e p ^ ( _ ~ &   *X*X*X*X      # 8 & *X*X*X*X*X*X*X*X*X*X*X*X",
"*X*X*X*X*X*X*X*X*X*X*X*X*X*X*X*X*X*X*X*X*X*X*X*X*X*X*X@ 0 5 5 i e ` [ [ [ [ ~ *     *X*X*X*X  X = + & u   *X*X*X*X*X*X*X*X*X*X*X",
"*X*X*X*X*X*X*X*X*X*X*X*X*X*X*X*X*X*X*X                a # S 6.i i i i i i i #         *X*X    | ;.t.`     *X*X*X*X*X*X*X*X*X*X*X",
"*X*X*X*X*X*X*X*X*X*X*X*X*X*X*X*X*X*X  v.'.`.`.Y.9.b u e @   +   @ @   @ o                     . b &.=.{ @ *X*X*X*X*X*X*X*X*X*X*X",
"*X*X*X*X*X*X*X*X*X*X*X*X*X*X*X*X*X  E R.}.h.OXW.0.m a & @           0 / / 9 q #       U p.v.  u.N z %.I o *X*X*X*X*X*X*X*X*X*X*X",
"*X*X*X*X*X*X*X*X*X*X*X*X*X*X*X*X*X  d.{.(.4.OXW.0.m 8         & $ $ e / / 9 8 $       a.L.H.! Q.i.K f f o *X*X*X*X*X*X*X*X*X*X*X",
"*X*X*X*X*X*X*X*X*X*X*X*X*X*X*X*X*X  a.(.Q.4.}.Y.9.l         # e e e &                 e.E y }.OX@XH.3   *X*X*X*X*X*X*X*X*X*X*X*X",
"*X*X*X*X*X*X*X*X*X*X*X*X*X*X*X*X*X*X  E D.F.3.,         *X*X*X                8 e       U S.3.XXOX{.g.  *X*X*X*X*X*X*X*X*X*X*X*X",
"*X*X*X*X*X*X*X*X*X*X*X*X*X*X*X*X*X*X  N 5.4.O     *X*X*X*X*X                8 8     e $ M q.F.7.(.{.d.  *X*X*X*X*X*X*X*X*X*X*X*X",
"*X*X*X*X*X*X*X*X*X*X*X*X*X*X*X*X*X*X*X2 1 1     *X*X*X*X*X  @ 9 9 8 p ~ / 9 8 @   0 &   O N q.s.T.f.V *X*X*X*X*X*X*X*X*X*X*X*X*X",
"*X*X*X*X*X*X*X*X*X*X*X*X*X*X*X*X*X*X*X*X      *X*X*X*X*X      0 9 9 p / / 9 @   @ 0       X S e.r.U   *X*X*X*X*X*X*X*X*X*X*X*X*X",
"*X*X*X*X*X*X*X*X*X*X*X*X*X*X*X*X*X*X*X*X*X*X*X*X*X*X  @   @                     @ #                 *X*X*X*X*X*X*X*X*X*X*X*X*X*X",
"*X*X*X*X*X*X*X*X*X*X*X*X*X*X*X*X*X*X*X*X*X*X*X*X  # i i i i 0                 p } }         *X*X*X*X*X*X*X*X*X*X*X*X*X*X*X*X*X*X",
"*X*X*X*X*X*X*X*X*X*X*X*X*X*X*X*X*X*X*X*X*X*X    8 9   @ @ @                 8 i / } e #       *X*X*X*X*X*X*X*X*X*X*X*X*X*X*X*X*X",
"*X*X*X*X*X*X*X*X*X*X*X*X*X*X*X*X*X*X*X*X*X  9 9 & @                         @ 0 a ( ) u $     *X*X*X*X*X*X*X*X*X*X*X*X*X*X*X*X*X",
"*X*X*X*X*X*X*X*X*X*X*X*X*X*X*X*X*X*X*X*X@ $ 9 9 @                             # q i } ^ 8     *X*X*X*X*X*X*X*X*X*X*X*X*X*X*X*X*X",
"*X*X*X*X*X*X*X*X*X*X*X*X*X*X*X*X*X*X*X@ $ u                                     @ e [ ^ 9 @     *X*X*X*X*X*X*X*X*X*X*X*X*X*X*X*X",
"*X*X*X*X*X*X*X*X*X*X*X*X*X*X*X*X*X*X  9 0                         *X*X              e ` ) i i   *X*X*X*X*X*X*X*X*X*X*X*X*X*X*X*X",
"*X*X*X*X*X*X*X*X*X*X*X*X*X*X*X*X*X*X  * 0                       *X*X*X*X*X          @ e _ ) i     *X*X*X*X*X*X*X*X*X*X*X*X*X*X*X",
"*X*X*X*X*X*X*X*X*X*X*X*X*X*X*X*X*X*X  8 9                   *X*X*X*X*X*X*X*X          # 0 u &       *X*X*X*X*X*X*X*X*X*X*X*X*X*X",
"*X*X*X*X*X*X*X*X*X*X*X*X*X*X*X*X*X*X  & &                 *X*X*X*X*X*X*X*X*X*X            & # 0 * @   *X*X*X*X*X*X*X*X*X*X*X*X*X",
"*X*X*X*X*X*X*X*X*X*X*X*X*X*X*X*X*X*X                  *X*X*X*X*X*X*X*X*X*X*X*X*X        & u i [ / 9   *X*X*X*X*X*X*X*X*X*X*X*X*X",
"*X*X*X*X*X*X*X*X*X*X*X*X*X*X*X*X*X*X                  *X*X*X*X*X*X*X*X*X*X*X*X*X*X            u ` ) r   *X*X*X*X*X*X*X*X*X*X*X*X",
"*X*X*X*X*X*X*X*X*X*X*X*X*X*X*X*X*X*X  * 8             *X*X*X*X*X*X*X*X*X*X*X*X*X*X*X            & 9 q     *X*X*X*X*X*X*X*X*X*X*X",
"*X*X*X*X*X*X*X*X*X*X*X*X*X*X*X*X*X*X*X$ #           *X*X*X*X*X*X*X*X*X*X*X*X*X*X*X*X*X            # & 9   *X*X*X*X*X*X*X*X*X*X*X",
"*X*X*X*X*X*X*X*X*X*X*X*X*X*X*X*X*X*X*X*X    # $     *X*X*X*X*X*X*X*X*X*X*X*X*X*X*X*X*X*X          & & i   *X*X*X*X*X*X*X*X*X*X*X",
"*X*X*X*X*X*X*X*X*X*X*X*X*X*X*X*X*X*X*X*X*X  u u &   *X*X*X*X*X*X*X*X*X*X*X*X*X*X*X*X*X*X*X      9 i u u   *X*X*X*X*X*X*X*X*X*X*X",
"*X*X*X*X*X*X*X*X*X*X*X*X*X*X*X*X*X*X*X*X*X          *X*X*X*X*X*X*X*X*X*X*X*X*X*X*X*X*X*X*X*X*X            *X*X*X*X*X*X*X*X*X*X*X",
"*X*X*X*X*X*X*X*X*X*X*X*X*X*X*X*X*X*X        x x :   *X*X*X*X*X*X*X*X*X*X*X*X*X*X*X*X*X*X*X*X*X*X            *X*X*X*X*X*X*X*X*X*X",
"*X*X*X*X*X*X*X*X*X*X*X*X*X*X*X*X*X    ; s < s s -   *X*X*X*X*X*X*X*X*X*X*X*X*X*X*X*X*X*X*X*X*X*X  - k A A ,   *X*X*X*X*X*X*X*X*X",
"*X*X*X*X*X*X*X*X*X*X*X*X*X*X*X*X*X    d v g O = .   *X*X*X*X*X*X*X*X*X*X*X*X*X*X*X*X*X*X*X*X*X*X  : c %.%.h .   *X*X*X*X*X*X*X*X",
"*X*X*X*X*X*X*X*X*X*X*X*X*X*X              . C C 2   *X*X*X*X*X*X*X*X*X*X*X*X*X*X*X*X*X*X*X*X*X*X          g <   *X*X*X*X*X*X*X*X",
"*X*X*X*X*X*X*X*X*X*X*X*X*X  f  .N   k C g   C | s   *X*X*X*X*X*X*X*X*X*X*X*X*X*X*X*X*X*X*X*X*X  g n O.2.X.:     *X*X*X*X*X*X*X*X",
"*X*X*X*X*X*X*X*X*X*X*X*X*X  5 D t q t t t 0 t D %   *X*X*X*X*X*X*X*X*X*X*X*X*X*X*X*X*X*X*X*X*X  v %.:.2.>.o.v g   *X*X*X*X*X*X*X",
"*X*X*X*X*X*X*X*X*X*X*X*X*X  # 8 8 & & 8 8 8 8 & @   *X*X*X*X*X*X*X*X*X*X*X*X*X*X*X*X*X*X*X*X*X  D P -.-.-.P G H   *X*X*X*X*X*X*X",
"*X*X*X*X*X*X*X*X*X*X*X*X*X                          *X*X*X*X*X*X*X*X*X*X*X*X*X*X*X*X*X*X*X*X*X  p / / / / / / ~   *X*X*X*X*X*X*X",
"*X*X*X*X*X*X*X*X*X*X*X*X*X*X*X*X*X*X*X*X*X*X*X*X*X*X*X*X*X*X*X*X*X*X*X*X*X*X*X*X*X*X*X*X*X*X*X*X                *X*X*X*X*X*X*X*X"
};
